<?xml version="1.0" encoding="UTF-8"?>
<svg width="512" height="512" viewBox="0 0 512 512" xmlns="http://www.w3.org/2000/svg" role="img" aria-label="GUD Express Logo">
  <!-- Background circle -->
  <circle cx="256" cy="256" r="256" fill="#2196F3"/>
  
  <!-- Document/Paper icon -->
  <g transform="translate(140, 100)">
    <rect x="30" y="20" width="90" height="120" rx="4" fill="#FFFFFF"/>
    <!-- Document lines -->
    <line x1="45" y1="40" x2="105" y2="40" stroke="#2196F3" stroke-width="3"/>
    <line x1="45" y1="55" x2="105" y2="55" stroke="#2196F3" stroke-width="3"/>
    <line x1="45" y1="70" x2="105" y2="70" stroke="#2196F3" stroke-width="3"/>
    <line x1="45" y1="85" x2="90" y2="85" stroke="#2196F3" stroke-width="3"/>
  </g>
  
  <!-- Thumbs up icon -->
  <g transform="translate(80, 100)">
    <path d="M 40 60 L 40 110 L 60 110 L 60 60 Z" fill="#FFFFFF"/>
    <path d="M 60 50 Q 65 35, 75 40 Q 80 45, 80 55 L 80 75 L 110 75 L 110 95 L 75 95 L 60 95 L 60 50 Z" fill="#FFFFFF"/>
  </g>
  
  <!-- Speed/Motion lines -->
  <g transform="translate(180, 120)">
    <line x1="0" y1="0" x2="30" y2="0" stroke="#FFFFFF" stroke-width="4" opacity="0.9"/>
    <line x1="10" y1="15" x2="40" y2="15" stroke="#FFFFFF" stroke-width="4" opacity="0.9"/>
    <line x1="0" y1="30" x2="30" y2="30" stroke="#FFFFFF" stroke-width="4" opacity="0.9"/>
  </g>
  
  <!-- GUD text -->
  <text x="256" y="320" font-family="Arial, Helvetica, sans-serif" font-size="80" font-weight="bold" fill="#FFFFFF" text-anchor="middle" letter-spacing="2">GUD</text>
  
  <!-- EXPRESS text -->
  <text x="256" y="365" font-family="Arial, Helvetica, sans-serif" font-size="36" font-weight="normal" fill="#FFFFFF" text-anchor="middle" letter-spacing="4">EXPRESS</text>
</svg>
